<mxfile host="app.diagrams.net" modified="2023-11-25T19:57:33.269Z" agent="Mozilla/5.0 (Windows NT 10.0; Win64; x64) AppleWebKit/537.36 (KHTML, like Gecko) Chrome/119.0.0.0 Safari/537.36" etag="ygoMZCVzyoYP1aIK6DSt" version="22.1.4" type="device">
  <diagram name="Sayfa -1" id="d-kzM8eMWP5BgxHmfikW">
    <mxGraphModel dx="7234" dy="7823" grid="1" gridSize="10" guides="1" tooltips="1" connect="1" arrows="1" fold="1" page="1" pageScale="1" pageWidth="1169" pageHeight="827" math="0" shadow="0">
      <root>
        <mxCell id="0" />
        <mxCell id="1" parent="0" />
        <mxCell id="DwUaBpvBbQlG7ZUZZvnP-1" value="EMPLOYEES" style="rounded=0;whiteSpace=wrap;html=1;" parent="1" vertex="1">
          <mxGeometry x="-3332" y="-5721" width="160" height="40" as="geometry" />
        </mxCell>
        <mxCell id="DwUaBpvBbQlG7ZUZZvnP-3" value="FIRST_NAME" style="ellipse;whiteSpace=wrap;html=1;" parent="1" vertex="1">
          <mxGeometry x="-3460" y="-5721" width="110" height="39" as="geometry" />
        </mxCell>
        <mxCell id="DwUaBpvBbQlG7ZUZZvnP-8" value="TR_ID" style="ellipse;whiteSpace=wrap;html=1;" parent="1" vertex="1">
          <mxGeometry x="-3307" y="-5780" width="110" height="39" as="geometry" />
        </mxCell>
        <mxCell id="DwUaBpvBbQlG7ZUZZvnP-9" value="SALARY" style="ellipse;whiteSpace=wrap;html=1;" parent="1" vertex="1">
          <mxGeometry x="-3189" y="-5770.5" width="110" height="39" as="geometry" />
        </mxCell>
        <mxCell id="DwUaBpvBbQlG7ZUZZvnP-14" value="" style="endArrow=none;html=1;rounded=0;entryX=0.5;entryY=1;entryDx=0;entryDy=0;exitX=0.5;exitY=0;exitDx=0;exitDy=0;" parent="1" source="DwUaBpvBbQlG7ZUZZvnP-1" target="DwUaBpvBbQlG7ZUZZvnP-8" edge="1">
          <mxGeometry width="50" height="50" relative="1" as="geometry">
            <mxPoint x="-3310" y="-5690" as="sourcePoint" />
            <mxPoint x="-3260" y="-5740" as="targetPoint" />
          </mxGeometry>
        </mxCell>
        <mxCell id="DwUaBpvBbQlG7ZUZZvnP-15" value="" style="endArrow=none;html=1;rounded=0;entryX=0.228;entryY=0.929;entryDx=0;entryDy=0;entryPerimeter=0;exitX=0.929;exitY=-0.002;exitDx=0;exitDy=0;exitPerimeter=0;" parent="1" source="DwUaBpvBbQlG7ZUZZvnP-1" target="DwUaBpvBbQlG7ZUZZvnP-9" edge="1">
          <mxGeometry width="50" height="50" relative="1" as="geometry">
            <mxPoint x="-3210" y="-5720" as="sourcePoint" />
            <mxPoint x="-3190" y="-5740" as="targetPoint" />
          </mxGeometry>
        </mxCell>
        <mxCell id="DwUaBpvBbQlG7ZUZZvnP-16" value="" style="endArrow=none;html=1;rounded=0;entryX=1;entryY=0.5;entryDx=0;entryDy=0;exitX=0;exitY=0.5;exitDx=0;exitDy=0;" parent="1" source="DwUaBpvBbQlG7ZUZZvnP-1" target="DwUaBpvBbQlG7ZUZZvnP-3" edge="1">
          <mxGeometry width="50" height="50" relative="1" as="geometry">
            <mxPoint x="-3110" y="-5650" as="sourcePoint" />
            <mxPoint x="-3390" y="-5740" as="targetPoint" />
          </mxGeometry>
        </mxCell>
        <mxCell id="DwUaBpvBbQlG7ZUZZvnP-20" value="JANITORS" style="rounded=0;whiteSpace=wrap;html=1;" parent="1" vertex="1">
          <mxGeometry x="-3427" y="-5600" width="107" height="40" as="geometry" />
        </mxCell>
        <mxCell id="DwUaBpvBbQlG7ZUZZvnP-22" value="INSTRUCTORS" style="rounded=0;whiteSpace=wrap;html=1;" parent="1" vertex="1">
          <mxGeometry x="-3300" y="-5600" width="107" height="40" as="geometry" />
        </mxCell>
        <mxCell id="DwUaBpvBbQlG7ZUZZvnP-23" value="ADMINISTRATIVE_STAFFS" style="rounded=0;whiteSpace=wrap;html=1;" parent="1" vertex="1">
          <mxGeometry x="-3170" y="-5600" width="162" height="40" as="geometry" />
        </mxCell>
        <mxCell id="DwUaBpvBbQlG7ZUZZvnP-24" value="" style="endArrow=none;html=1;rounded=0;exitX=0.449;exitY=-0.035;exitDx=0;exitDy=0;exitPerimeter=0;entryX=0.5;entryY=1;entryDx=0;entryDy=0;" parent="1" source="DwUaBpvBbQlG7ZUZZvnP-22" target="DwUaBpvBbQlG7ZUZZvnP-26" edge="1">
          <mxGeometry width="50" height="50" relative="1" as="geometry">
            <mxPoint x="-3270" y="-5620" as="sourcePoint" />
            <mxPoint x="-3280" y="-5640" as="targetPoint" />
          </mxGeometry>
        </mxCell>
        <mxCell id="DwUaBpvBbQlG7ZUZZvnP-25" value="" style="endArrow=none;html=1;rounded=0;exitX=0.75;exitY=0;exitDx=0;exitDy=0;entryX=0.195;entryY=0.693;entryDx=0;entryDy=0;entryPerimeter=0;" parent="1" source="DwUaBpvBbQlG7ZUZZvnP-20" target="DwUaBpvBbQlG7ZUZZvnP-26" edge="1">
          <mxGeometry width="50" height="50" relative="1" as="geometry">
            <mxPoint x="-3270" y="-5620" as="sourcePoint" />
            <mxPoint x="-3280" y="-5640" as="targetPoint" />
          </mxGeometry>
        </mxCell>
        <mxCell id="DwUaBpvBbQlG7ZUZZvnP-26" value="d" style="ellipse;whiteSpace=wrap;html=1;aspect=fixed;" parent="1" vertex="1">
          <mxGeometry x="-3262" y="-5660" width="20" height="20" as="geometry" />
        </mxCell>
        <mxCell id="DwUaBpvBbQlG7ZUZZvnP-28" value="" style="endArrow=none;html=1;rounded=0;exitX=0.178;exitY=-0.003;exitDx=0;exitDy=0;entryX=0.949;entryY=0.72;entryDx=0;entryDy=0;entryPerimeter=0;exitPerimeter=0;" parent="1" source="DwUaBpvBbQlG7ZUZZvnP-23" target="DwUaBpvBbQlG7ZUZZvnP-26" edge="1">
          <mxGeometry width="50" height="50" relative="1" as="geometry">
            <mxPoint x="-3270" y="-5620" as="sourcePoint" />
            <mxPoint x="-3220" y="-5670" as="targetPoint" />
          </mxGeometry>
        </mxCell>
        <mxCell id="DwUaBpvBbQlG7ZUZZvnP-29" value="" style="endArrow=none;html=1;rounded=0;entryX=0.5;entryY=1;entryDx=0;entryDy=0;exitX=0.5;exitY=0;exitDx=0;exitDy=0;" parent="1" source="DwUaBpvBbQlG7ZUZZvnP-26" target="DwUaBpvBbQlG7ZUZZvnP-1" edge="1">
          <mxGeometry width="50" height="50" relative="1" as="geometry">
            <mxPoint x="-3270" y="-5620" as="sourcePoint" />
            <mxPoint x="-3220" y="-5670" as="targetPoint" />
          </mxGeometry>
        </mxCell>
        <mxCell id="DwUaBpvBbQlG7ZUZZvnP-54" value="STUDENTS" style="rounded=0;whiteSpace=wrap;html=1;" parent="1" vertex="1">
          <mxGeometry x="-3312" y="-5161" width="160" height="40" as="geometry" />
        </mxCell>
        <mxCell id="DwUaBpvBbQlG7ZUZZvnP-55" value="TR_ID" style="ellipse;whiteSpace=wrap;html=1;" parent="1" vertex="1">
          <mxGeometry x="-3447" y="-5220" width="110" height="39" as="geometry" />
        </mxCell>
        <mxCell id="DwUaBpvBbQlG7ZUZZvnP-56" value="FIRST_NAME" style="ellipse;whiteSpace=wrap;html=1;" parent="1" vertex="1">
          <mxGeometry x="-3312" y="-5220" width="110" height="39" as="geometry" />
        </mxCell>
        <mxCell id="DwUaBpvBbQlG7ZUZZvnP-59" value="" style="endArrow=none;html=1;rounded=0;entryX=0.5;entryY=1;entryDx=0;entryDy=0;exitX=0.5;exitY=0;exitDx=0;exitDy=0;" parent="1" source="DwUaBpvBbQlG7ZUZZvnP-54" target="DwUaBpvBbQlG7ZUZZvnP-56" edge="1">
          <mxGeometry width="50" height="50" relative="1" as="geometry">
            <mxPoint x="-3290" y="-5130" as="sourcePoint" />
            <mxPoint x="-3240" y="-5180" as="targetPoint" />
          </mxGeometry>
        </mxCell>
        <mxCell id="DwUaBpvBbQlG7ZUZZvnP-61" value="" style="endArrow=none;html=1;rounded=0;exitX=0.1;exitY=-0.011;exitDx=0;exitDy=0;exitPerimeter=0;entryX=0.778;entryY=0.917;entryDx=0;entryDy=0;entryPerimeter=0;" parent="1" source="DwUaBpvBbQlG7ZUZZvnP-54" target="DwUaBpvBbQlG7ZUZZvnP-55" edge="1">
          <mxGeometry width="50" height="50" relative="1" as="geometry">
            <mxPoint x="-3380" y="-5140" as="sourcePoint" />
            <mxPoint x="-3370" y="-5180" as="targetPoint" />
          </mxGeometry>
        </mxCell>
        <mxCell id="DwUaBpvBbQlG7ZUZZvnP-64" value="ACTIVE" style="rounded=0;whiteSpace=wrap;html=1;" parent="1" vertex="1">
          <mxGeometry x="-3410" y="-5040" width="107" height="40" as="geometry" />
        </mxCell>
        <mxCell id="DwUaBpvBbQlG7ZUZZvnP-66" value="GRADUATE" style="rounded=0;whiteSpace=wrap;html=1;" parent="1" vertex="1">
          <mxGeometry x="-3150" y="-5040" width="107" height="40" as="geometry" />
        </mxCell>
        <mxCell id="DwUaBpvBbQlG7ZUZZvnP-68" value="" style="endArrow=none;html=1;rounded=0;exitX=0.5;exitY=0;exitDx=0;exitDy=0;entryX=0.195;entryY=0.693;entryDx=0;entryDy=0;entryPerimeter=0;" parent="1" source="DwUaBpvBbQlG7ZUZZvnP-64" target="DwUaBpvBbQlG7ZUZZvnP-69" edge="1">
          <mxGeometry width="50" height="50" relative="1" as="geometry">
            <mxPoint x="-3250" y="-5060" as="sourcePoint" />
            <mxPoint x="-3260" y="-5080" as="targetPoint" />
          </mxGeometry>
        </mxCell>
        <mxCell id="DwUaBpvBbQlG7ZUZZvnP-69" value="d" style="ellipse;whiteSpace=wrap;html=1;aspect=fixed;" parent="1" vertex="1">
          <mxGeometry x="-3242" y="-5100" width="20" height="20" as="geometry" />
        </mxCell>
        <mxCell id="DwUaBpvBbQlG7ZUZZvnP-70" value="" style="endArrow=none;html=1;rounded=0;exitX=0.5;exitY=0;exitDx=0;exitDy=0;entryX=0.707;entryY=0.955;entryDx=0;entryDy=0;entryPerimeter=0;" parent="1" source="DwUaBpvBbQlG7ZUZZvnP-66" target="DwUaBpvBbQlG7ZUZZvnP-69" edge="1">
          <mxGeometry width="50" height="50" relative="1" as="geometry">
            <mxPoint x="-3250" y="-5060" as="sourcePoint" />
            <mxPoint x="-3200" y="-5110" as="targetPoint" />
          </mxGeometry>
        </mxCell>
        <mxCell id="DwUaBpvBbQlG7ZUZZvnP-73" value="" style="endArrow=none;html=1;rounded=0;entryX=0.5;entryY=1;entryDx=0;entryDy=0;exitX=0.5;exitY=0;exitDx=0;exitDy=0;" parent="1" source="DwUaBpvBbQlG7ZUZZvnP-69" target="DwUaBpvBbQlG7ZUZZvnP-54" edge="1">
          <mxGeometry width="50" height="50" relative="1" as="geometry">
            <mxPoint x="-3250" y="-5060" as="sourcePoint" />
            <mxPoint x="-3200" y="-5110" as="targetPoint" />
          </mxGeometry>
        </mxCell>
        <mxCell id="DwUaBpvBbQlG7ZUZZvnP-74" value="" style="endArrow=none;html=1;rounded=0;entryX=0;entryY=0.5;entryDx=0;entryDy=0;exitX=1;exitY=0.5;exitDx=0;exitDy=0;" parent="1" source="qjkU8IZS4I7HpVYI03z5-11" target="DwUaBpvBbQlG7ZUZZvnP-54" edge="1">
          <mxGeometry width="50" height="50" relative="1" as="geometry">
            <mxPoint x="-3337.0000000000005" y="-5139.5" as="sourcePoint" />
            <mxPoint x="-3320" y="-5120" as="targetPoint" />
          </mxGeometry>
        </mxCell>
        <mxCell id="DwUaBpvBbQlG7ZUZZvnP-76" value="FIRST_NAME" style="ellipse;whiteSpace=wrap;html=1;" parent="1" vertex="1">
          <mxGeometry x="-2382" y="-5093.5" width="110" height="39" as="geometry" />
        </mxCell>
        <mxCell id="DwUaBpvBbQlG7ZUZZvnP-80" value="" style="endArrow=none;html=1;rounded=0;exitX=0.007;exitY=0.826;exitDx=0;exitDy=0;entryX=1;entryY=1;entryDx=0;entryDy=0;exitPerimeter=0;" parent="1" source="qjkU8IZS4I7HpVYI03z5-7" target="DwUaBpvBbQlG7ZUZZvnP-76" edge="1">
          <mxGeometry width="50" height="50" relative="1" as="geometry">
            <mxPoint x="-2230.665" y="-5091.02" as="sourcePoint" />
            <mxPoint x="-2210" y="-5123.5" as="targetPoint" />
          </mxGeometry>
        </mxCell>
        <mxCell id="DwUaBpvBbQlG7ZUZZvnP-91" value="E- MAIL" style="ellipse;whiteSpace=wrap;html=1;" parent="1" vertex="1">
          <mxGeometry x="-2082" y="-5139" width="110" height="39" as="geometry" />
        </mxCell>
        <mxCell id="DwUaBpvBbQlG7ZUZZvnP-92" value="PHONENUMBER" style="ellipse;whiteSpace=wrap;html=1;" parent="1" vertex="1">
          <mxGeometry x="-2062" y="-5093.5" width="110" height="39" as="geometry" />
        </mxCell>
        <mxCell id="DwUaBpvBbQlG7ZUZZvnP-93" value="" style="endArrow=none;html=1;rounded=0;exitX=0.943;exitY=0.009;exitDx=0;exitDy=0;entryX=0.278;entryY=0.948;entryDx=0;entryDy=0;exitPerimeter=0;entryPerimeter=0;" parent="1" source="qjkU8IZS4I7HpVYI03z5-7" target="DwUaBpvBbQlG7ZUZZvnP-91" edge="1">
          <mxGeometry width="50" height="50" relative="1" as="geometry">
            <mxPoint x="-2164.5" y="-5093.5" as="sourcePoint" />
            <mxPoint x="-2037" y="-5293.5" as="targetPoint" />
          </mxGeometry>
        </mxCell>
        <mxCell id="DwUaBpvBbQlG7ZUZZvnP-94" value="" style="endArrow=none;html=1;rounded=0;exitX=1;exitY=0.5;exitDx=0;exitDy=0;entryX=0;entryY=0.5;entryDx=0;entryDy=0;" parent="1" source="qjkU8IZS4I7HpVYI03z5-7" target="DwUaBpvBbQlG7ZUZZvnP-92" edge="1">
          <mxGeometry width="50" height="50" relative="1" as="geometry">
            <mxPoint x="-2082" y="-5093.5" as="sourcePoint" />
            <mxPoint x="-2067" y="-5293.5" as="targetPoint" />
          </mxGeometry>
        </mxCell>
        <mxCell id="DwUaBpvBbQlG7ZUZZvnP-99" value="EXPENSES" style="rounded=0;whiteSpace=wrap;html=1;" parent="1" vertex="1">
          <mxGeometry x="-3331" y="-5338" width="130" height="40" as="geometry" />
        </mxCell>
        <mxCell id="DwUaBpvBbQlG7ZUZZvnP-104" value="EXPENSE_NAME" style="ellipse;whiteSpace=wrap;html=1;" parent="1" vertex="1">
          <mxGeometry x="-3459" y="-5337" width="110" height="39" as="geometry" />
        </mxCell>
        <mxCell id="DwUaBpvBbQlG7ZUZZvnP-105" value="" style="endArrow=none;html=1;rounded=0;exitX=0;exitY=0.5;exitDx=0;exitDy=0;entryX=1;entryY=0.5;entryDx=0;entryDy=0;" parent="1" source="DwUaBpvBbQlG7ZUZZvnP-99" target="DwUaBpvBbQlG7ZUZZvnP-104" edge="1">
          <mxGeometry width="50" height="50" relative="1" as="geometry">
            <mxPoint x="-2809" y="-5418" as="sourcePoint" />
            <mxPoint x="-2759" y="-5468" as="targetPoint" />
          </mxGeometry>
        </mxCell>
        <mxCell id="DwUaBpvBbQlG7ZUZZvnP-106" value="EXPENSE_DATE" style="ellipse;whiteSpace=wrap;html=1;" parent="1" vertex="1">
          <mxGeometry x="-3321" y="-5402" width="110" height="39" as="geometry" />
        </mxCell>
        <mxCell id="DwUaBpvBbQlG7ZUZZvnP-107" value="" style="endArrow=none;html=1;rounded=0;exitX=0.5;exitY=0;exitDx=0;exitDy=0;entryX=0.5;entryY=1;entryDx=0;entryDy=0;" parent="1" source="DwUaBpvBbQlG7ZUZZvnP-99" target="DwUaBpvBbQlG7ZUZZvnP-106" edge="1">
          <mxGeometry width="50" height="50" relative="1" as="geometry">
            <mxPoint x="-3119" y="-5298" as="sourcePoint" />
            <mxPoint x="-3069" y="-5348" as="targetPoint" />
          </mxGeometry>
        </mxCell>
        <mxCell id="DwUaBpvBbQlG7ZUZZvnP-108" value="IS_FIXED" style="ellipse;whiteSpace=wrap;html=1;" parent="1" vertex="1">
          <mxGeometry x="-3211" y="-5383" width="110" height="39" as="geometry" />
        </mxCell>
        <mxCell id="DwUaBpvBbQlG7ZUZZvnP-109" value="" style="endArrow=none;html=1;rounded=0;exitX=1;exitY=0;exitDx=0;exitDy=0;entryX=0.25;entryY=0.924;entryDx=0;entryDy=0;entryPerimeter=0;" parent="1" source="DwUaBpvBbQlG7ZUZZvnP-99" target="DwUaBpvBbQlG7ZUZZvnP-108" edge="1">
          <mxGeometry width="50" height="50" relative="1" as="geometry">
            <mxPoint x="-3099" y="-5258" as="sourcePoint" />
            <mxPoint x="-3049" y="-5308" as="targetPoint" />
          </mxGeometry>
        </mxCell>
        <mxCell id="DwUaBpvBbQlG7ZUZZvnP-110" value="COURSES" style="rounded=0;whiteSpace=wrap;html=1;" parent="1" vertex="1">
          <mxGeometry x="-2530" y="-5722.5" width="160" height="40" as="geometry" />
        </mxCell>
        <mxCell id="DwUaBpvBbQlG7ZUZZvnP-112" value="COURSE_MINIMUM_DEMAND_TO" style="ellipse;whiteSpace=wrap;html=1;" parent="1" vertex="1">
          <mxGeometry x="-2610" y="-5789" width="225" height="49" as="geometry" />
        </mxCell>
        <mxCell id="DwUaBpvBbQlG7ZUZZvnP-114" value="" style="endArrow=none;html=1;rounded=0;entryX=0;entryY=1;entryDx=0;entryDy=0;exitX=1;exitY=0.25;exitDx=0;exitDy=0;" parent="1" source="DwUaBpvBbQlG7ZUZZvnP-110" target="qjkU8IZS4I7HpVYI03z5-35" edge="1">
          <mxGeometry width="50" height="50" relative="1" as="geometry">
            <mxPoint x="-2520" y="-5561.5" as="sourcePoint" />
            <mxPoint x="-2550" y="-5702.5" as="targetPoint" />
          </mxGeometry>
        </mxCell>
        <mxCell id="DwUaBpvBbQlG7ZUZZvnP-115" value="" style="endArrow=none;html=1;rounded=0;entryX=0.513;entryY=1.005;entryDx=0;entryDy=0;exitX=0.474;exitY=0;exitDx=0;exitDy=0;exitPerimeter=0;entryPerimeter=0;" parent="1" source="DwUaBpvBbQlG7ZUZZvnP-110" edge="1">
          <mxGeometry width="50" height="50" relative="1" as="geometry">
            <mxPoint x="-2750" y="-5421.5" as="sourcePoint" />
            <mxPoint x="-2454.5750000000007" y="-5739.755" as="targetPoint" />
          </mxGeometry>
        </mxCell>
        <mxCell id="DwUaBpvBbQlG7ZUZZvnP-118" value="MATERIALS" style="rounded=0;whiteSpace=wrap;html=1;" parent="1" vertex="1">
          <mxGeometry x="-2390" y="-5342" width="170" height="40" as="geometry" />
        </mxCell>
        <mxCell id="DwUaBpvBbQlG7ZUZZvnP-121" value="" style="endArrow=none;html=1;rounded=0;exitX=0.001;exitY=0.279;exitDx=0;exitDy=0;entryX=0.659;entryY=0.973;entryDx=0;entryDy=0;exitPerimeter=0;entryPerimeter=0;" parent="1" source="DwUaBpvBbQlG7ZUZZvnP-118" target="qjkU8IZS4I7HpVYI03z5-55" edge="1">
          <mxGeometry width="50" height="50" relative="1" as="geometry">
            <mxPoint x="-2560" y="-5252" as="sourcePoint" />
            <mxPoint x="-2416.0883464498697" y="-5348.718789367662" as="targetPoint" />
          </mxGeometry>
        </mxCell>
        <mxCell id="DwUaBpvBbQlG7ZUZZvnP-122" value="" style="endArrow=none;html=1;rounded=0;entryX=0.5;entryY=1;entryDx=0;entryDy=0;exitX=0.5;exitY=0;exitDx=0;exitDy=0;" parent="1" source="DwUaBpvBbQlG7ZUZZvnP-118" target="DwUaBpvBbQlG7ZUZZvnP-125" edge="1">
          <mxGeometry width="50" height="50" relative="1" as="geometry">
            <mxPoint x="-2450" y="-5222" as="sourcePoint" />
            <mxPoint x="-2400" y="-5272" as="targetPoint" />
          </mxGeometry>
        </mxCell>
        <mxCell id="DwUaBpvBbQlG7ZUZZvnP-123" value="" style="endArrow=none;html=1;rounded=0;entryX=0.389;entryY=0.967;entryDx=0;entryDy=0;entryPerimeter=0;exitX=1;exitY=0.25;exitDx=0;exitDy=0;" parent="1" source="DwUaBpvBbQlG7ZUZZvnP-118" target="DwUaBpvBbQlG7ZUZZvnP-126" edge="1">
          <mxGeometry width="50" height="50" relative="1" as="geometry">
            <mxPoint x="-2290" y="-5182" as="sourcePoint" />
            <mxPoint x="-2240" y="-5232" as="targetPoint" />
          </mxGeometry>
        </mxCell>
        <mxCell id="DwUaBpvBbQlG7ZUZZvnP-125" value="MATERIAL_NAME" style="ellipse;whiteSpace=wrap;html=1;" parent="1" vertex="1">
          <mxGeometry x="-2360" y="-5402" width="110" height="39" as="geometry" />
        </mxCell>
        <mxCell id="DwUaBpvBbQlG7ZUZZvnP-126" value="MATERIAL_AMOUNT" style="ellipse;whiteSpace=wrap;html=1;" parent="1" vertex="1">
          <mxGeometry x="-2230" y="-5382" width="128" height="39" as="geometry" />
        </mxCell>
        <mxCell id="qjkU8IZS4I7HpVYI03z5-7" value="PARENTS" style="shape=ext;margin=3;double=1;whiteSpace=wrap;html=1;align=center;" parent="1" vertex="1">
          <mxGeometry x="-2227" y="-5093.5" width="150" height="40" as="geometry" />
        </mxCell>
        <mxCell id="qjkU8IZS4I7HpVYI03z5-8" value="LAST_NAME" style="ellipse;whiteSpace=wrap;html=1;" parent="1" vertex="1">
          <mxGeometry x="-3182" y="-5220" width="110" height="39" as="geometry" />
        </mxCell>
        <mxCell id="qjkU8IZS4I7HpVYI03z5-10" value="" style="endArrow=none;html=1;rounded=0;exitX=0.888;exitY=-0.008;exitDx=0;exitDy=0;exitPerimeter=0;entryX=0.5;entryY=1;entryDx=0;entryDy=0;" parent="1" source="DwUaBpvBbQlG7ZUZZvnP-54" target="qjkU8IZS4I7HpVYI03z5-8" edge="1">
          <mxGeometry width="50" height="50" relative="1" as="geometry">
            <mxPoint x="-3010" y="-5200" as="sourcePoint" />
            <mxPoint x="-2960" y="-5250" as="targetPoint" />
          </mxGeometry>
        </mxCell>
        <mxCell id="qjkU8IZS4I7HpVYI03z5-11" value="STUDENT_ID" style="ellipse;whiteSpace=wrap;html=1;align=center;fontStyle=4;" parent="1" vertex="1">
          <mxGeometry x="-3437" y="-5161" width="100" height="40" as="geometry" />
        </mxCell>
        <mxCell id="qjkU8IZS4I7HpVYI03z5-13" value="STUDENT_ID" style="ellipse;whiteSpace=wrap;html=1;align=center;fontStyle=4;" parent="1" vertex="1">
          <mxGeometry x="-2332" y="-5139" width="100" height="40" as="geometry" />
        </mxCell>
        <mxCell id="qjkU8IZS4I7HpVYI03z5-14" value="" style="endArrow=none;html=1;rounded=0;entryX=0;entryY=0;entryDx=0;entryDy=0;exitX=1;exitY=1;exitDx=0;exitDy=0;" parent="1" source="qjkU8IZS4I7HpVYI03z5-13" target="qjkU8IZS4I7HpVYI03z5-7" edge="1">
          <mxGeometry width="50" height="50" relative="1" as="geometry">
            <mxPoint x="-2112" y="-5009" as="sourcePoint" />
            <mxPoint x="-2357" y="-5103.5" as="targetPoint" />
          </mxGeometry>
        </mxCell>
        <mxCell id="qjkU8IZS4I7HpVYI03z5-15" value="LAST_NAME" style="ellipse;whiteSpace=wrap;html=1;" parent="1" vertex="1">
          <mxGeometry x="-2297" y="-5039" width="110" height="39" as="geometry" />
        </mxCell>
        <mxCell id="qjkU8IZS4I7HpVYI03z5-17" value="" style="endArrow=none;html=1;rounded=0;exitX=0.5;exitY=0;exitDx=0;exitDy=0;entryX=0.137;entryY=0.995;entryDx=0;entryDy=0;entryPerimeter=0;" parent="1" source="qjkU8IZS4I7HpVYI03z5-15" target="qjkU8IZS4I7HpVYI03z5-7" edge="1">
          <mxGeometry width="50" height="50" relative="1" as="geometry">
            <mxPoint x="-2232" y="-4999" as="sourcePoint" />
            <mxPoint x="-2182" y="-5049" as="targetPoint" />
          </mxGeometry>
        </mxCell>
        <mxCell id="qjkU8IZS4I7HpVYI03z5-18" value="TR_ID" style="ellipse;whiteSpace=wrap;html=1;" parent="1" vertex="1">
          <mxGeometry x="-2207" y="-5148" width="110" height="39" as="geometry" />
        </mxCell>
        <mxCell id="qjkU8IZS4I7HpVYI03z5-19" value="" style="endArrow=none;html=1;rounded=0;entryX=0.5;entryY=1;entryDx=0;entryDy=0;exitX=0.5;exitY=0;exitDx=0;exitDy=0;" parent="1" source="qjkU8IZS4I7HpVYI03z5-7" target="qjkU8IZS4I7HpVYI03z5-18" edge="1">
          <mxGeometry width="50" height="50" relative="1" as="geometry">
            <mxPoint x="-2232" y="-4999" as="sourcePoint" />
            <mxPoint x="-2182" y="-5049" as="targetPoint" />
          </mxGeometry>
        </mxCell>
        <mxCell id="qjkU8IZS4I7HpVYI03z5-20" value="EXPENSE_ID" style="ellipse;whiteSpace=wrap;html=1;align=center;fontStyle=4;" parent="1" vertex="1">
          <mxGeometry x="-3431" y="-5393" width="100" height="40" as="geometry" />
        </mxCell>
        <mxCell id="qjkU8IZS4I7HpVYI03z5-21" value="" style="endArrow=none;html=1;rounded=0;entryX=1;entryY=1;entryDx=0;entryDy=0;exitX=0.211;exitY=0.006;exitDx=0;exitDy=0;exitPerimeter=0;" parent="1" source="DwUaBpvBbQlG7ZUZZvnP-99" target="qjkU8IZS4I7HpVYI03z5-20" edge="1">
          <mxGeometry width="50" height="50" relative="1" as="geometry">
            <mxPoint x="-2982" y="-5143" as="sourcePoint" />
            <mxPoint x="-2932" y="-5193" as="targetPoint" />
          </mxGeometry>
        </mxCell>
        <mxCell id="qjkU8IZS4I7HpVYI03z5-22" value="AMOUNT" style="ellipse;whiteSpace=wrap;html=1;" parent="1" vertex="1">
          <mxGeometry x="-3182" y="-5337" width="110" height="39" as="geometry" />
        </mxCell>
        <mxCell id="qjkU8IZS4I7HpVYI03z5-23" value="" style="endArrow=none;html=1;rounded=0;entryX=1;entryY=0.5;entryDx=0;entryDy=0;exitX=0;exitY=0.5;exitDx=0;exitDy=0;" parent="1" source="qjkU8IZS4I7HpVYI03z5-22" target="DwUaBpvBbQlG7ZUZZvnP-99" edge="1">
          <mxGeometry width="50" height="50" relative="1" as="geometry">
            <mxPoint x="-3332" y="-5273" as="sourcePoint" />
            <mxPoint x="-3256" y="-5364" as="targetPoint" />
          </mxGeometry>
        </mxCell>
        <mxCell id="qjkU8IZS4I7HpVYI03z5-33" value="COURSE_ID" style="ellipse;whiteSpace=wrap;html=1;align=center;fontStyle=4;" parent="1" vertex="1">
          <mxGeometry x="-2660" y="-5762.5" width="100" height="40" as="geometry" />
        </mxCell>
        <mxCell id="qjkU8IZS4I7HpVYI03z5-34" value="" style="endArrow=none;html=1;rounded=0;entryX=1;entryY=1;entryDx=0;entryDy=0;exitX=0;exitY=0.25;exitDx=0;exitDy=0;" parent="1" source="DwUaBpvBbQlG7ZUZZvnP-110" target="qjkU8IZS4I7HpVYI03z5-33" edge="1">
          <mxGeometry width="50" height="50" relative="1" as="geometry">
            <mxPoint x="-2520" y="-5702.5" as="sourcePoint" />
            <mxPoint x="-2556" y="-5627.5" as="targetPoint" />
          </mxGeometry>
        </mxCell>
        <mxCell id="qjkU8IZS4I7HpVYI03z5-35" value="COURSE_NAME" style="ellipse;whiteSpace=wrap;html=1;" parent="1" vertex="1">
          <mxGeometry x="-2355" y="-5761.5" width="110" height="39" as="geometry" />
        </mxCell>
        <mxCell id="qjkU8IZS4I7HpVYI03z5-36" value="EMPLOYEE_ID" style="ellipse;whiteSpace=wrap;html=1;align=center;fontStyle=4;" parent="1" vertex="1">
          <mxGeometry x="-3420" y="-5771" width="100" height="40" as="geometry" />
        </mxCell>
        <mxCell id="qjkU8IZS4I7HpVYI03z5-37" value="" style="endArrow=none;html=1;rounded=0;entryX=0.774;entryY=0.92;entryDx=0;entryDy=0;exitX=0.069;exitY=-0.002;exitDx=0;exitDy=0;entryPerimeter=0;exitPerimeter=0;" parent="1" source="DwUaBpvBbQlG7ZUZZvnP-1" target="qjkU8IZS4I7HpVYI03z5-36" edge="1">
          <mxGeometry width="50" height="50" relative="1" as="geometry">
            <mxPoint x="-3325" y="-5721" as="sourcePoint" />
            <mxPoint x="-3350" y="-5741" as="targetPoint" />
          </mxGeometry>
        </mxCell>
        <mxCell id="qjkU8IZS4I7HpVYI03z5-39" value="LAST_NAME" style="ellipse;whiteSpace=wrap;html=1;" parent="1" vertex="1">
          <mxGeometry x="-3150" y="-5720" width="110" height="39" as="geometry" />
        </mxCell>
        <mxCell id="qjkU8IZS4I7HpVYI03z5-40" value="" style="endArrow=none;html=1;rounded=0;exitX=0;exitY=0.5;exitDx=0;exitDy=0;entryX=1;entryY=0.5;entryDx=0;entryDy=0;" parent="1" source="qjkU8IZS4I7HpVYI03z5-39" target="DwUaBpvBbQlG7ZUZZvnP-1" edge="1">
          <mxGeometry width="50" height="50" relative="1" as="geometry">
            <mxPoint x="-3289" y="-5671" as="sourcePoint" />
            <mxPoint x="-3210" y="-5670" as="targetPoint" />
          </mxGeometry>
        </mxCell>
        <mxCell id="qjkU8IZS4I7HpVYI03z5-42" value="INSTRUCTOR_TO_COURSES" style="shape=rhombus;perimeter=rhombusPerimeter;whiteSpace=wrap;html=1;align=center;" parent="1" vertex="1">
          <mxGeometry x="-2950" y="-5563" width="190" height="170" as="geometry" />
        </mxCell>
        <mxCell id="qjkU8IZS4I7HpVYI03z5-51" value="" style="endArrow=none;html=1;rounded=0;entryX=0;entryY=0.5;entryDx=0;entryDy=0;exitX=0.56;exitY=0.999;exitDx=0;exitDy=0;exitPerimeter=0;" parent="1" source="DwUaBpvBbQlG7ZUZZvnP-22" target="qjkU8IZS4I7HpVYI03z5-42" edge="1">
          <mxGeometry relative="1" as="geometry">
            <mxPoint x="-3030" y="-5478.34" as="sourcePoint" />
            <mxPoint x="-2870" y="-5478.34" as="targetPoint" />
            <Array as="points">
              <mxPoint x="-3240" y="-5480" />
            </Array>
          </mxGeometry>
        </mxCell>
        <mxCell id="qjkU8IZS4I7HpVYI03z5-52" value="1" style="resizable=0;html=1;whiteSpace=wrap;align=right;verticalAlign=bottom;" parent="qjkU8IZS4I7HpVYI03z5-51" connectable="0" vertex="1">
          <mxGeometry x="1" relative="1" as="geometry" />
        </mxCell>
        <mxCell id="qjkU8IZS4I7HpVYI03z5-55" value="MATERIAL_ID" style="ellipse;whiteSpace=wrap;html=1;align=center;fontStyle=4;" parent="1" vertex="1">
          <mxGeometry x="-2500" y="-5383" width="100" height="40" as="geometry" />
        </mxCell>
        <mxCell id="qjkU8IZS4I7HpVYI03z5-57" value="MATERIAL_TO_COURSES" style="shape=rhombus;perimeter=rhombusPerimeter;whiteSpace=wrap;html=1;align=center;" parent="1" vertex="1">
          <mxGeometry x="-2132" y="-5611.5" width="180" height="170" as="geometry" />
        </mxCell>
        <mxCell id="qjkU8IZS4I7HpVYI03z5-66" value="" style="endArrow=none;html=1;rounded=0;exitX=1;exitY=0.75;exitDx=0;exitDy=0;entryX=0.508;entryY=0.023;entryDx=0;entryDy=0;entryPerimeter=0;" parent="1" source="DwUaBpvBbQlG7ZUZZvnP-110" target="qjkU8IZS4I7HpVYI03z5-57" edge="1">
          <mxGeometry relative="1" as="geometry">
            <mxPoint x="-2342" y="-5561.5" as="sourcePoint" />
            <mxPoint x="-2182" y="-5561.5" as="targetPoint" />
            <Array as="points">
              <mxPoint x="-2042" y="-5691.5" />
            </Array>
          </mxGeometry>
        </mxCell>
        <mxCell id="qjkU8IZS4I7HpVYI03z5-67" value="1" style="resizable=0;html=1;whiteSpace=wrap;align=right;verticalAlign=bottom;" parent="qjkU8IZS4I7HpVYI03z5-66" connectable="0" vertex="1">
          <mxGeometry x="1" relative="1" as="geometry" />
        </mxCell>
        <mxCell id="qjkU8IZS4I7HpVYI03z5-70" value="" style="endArrow=none;html=1;rounded=0;exitX=1;exitY=0.5;exitDx=0;exitDy=0;entryX=0.5;entryY=1;entryDx=0;entryDy=0;" parent="1" source="DwUaBpvBbQlG7ZUZZvnP-118" target="qjkU8IZS4I7HpVYI03z5-57" edge="1">
          <mxGeometry relative="1" as="geometry">
            <mxPoint x="-1800" y="-5440" as="sourcePoint" />
            <mxPoint x="-1640" y="-5440" as="targetPoint" />
            <Array as="points">
              <mxPoint x="-2040" y="-5322" />
            </Array>
          </mxGeometry>
        </mxCell>
        <mxCell id="qjkU8IZS4I7HpVYI03z5-71" value="N" style="resizable=0;html=1;whiteSpace=wrap;align=right;verticalAlign=bottom;" parent="qjkU8IZS4I7HpVYI03z5-70" connectable="0" vertex="1">
          <mxGeometry x="1" relative="1" as="geometry" />
        </mxCell>
        <mxCell id="qjkU8IZS4I7HpVYI03z5-72" value="" style="endArrow=none;html=1;rounded=0;exitX=0.062;exitY=1.006;exitDx=0;exitDy=0;exitPerimeter=0;entryX=1;entryY=0.5;entryDx=0;entryDy=0;" parent="1" source="DwUaBpvBbQlG7ZUZZvnP-110" target="qjkU8IZS4I7HpVYI03z5-42" edge="1">
          <mxGeometry relative="1" as="geometry">
            <mxPoint x="-2210" y="-5312" as="sourcePoint" />
            <mxPoint x="-2760" y="-5520" as="targetPoint" />
            <Array as="points">
              <mxPoint x="-2520" y="-5480" />
            </Array>
          </mxGeometry>
        </mxCell>
        <mxCell id="qjkU8IZS4I7HpVYI03z5-73" value="N" style="resizable=0;html=1;whiteSpace=wrap;align=right;verticalAlign=bottom;" parent="qjkU8IZS4I7HpVYI03z5-72" connectable="0" vertex="1">
          <mxGeometry x="1" relative="1" as="geometry" />
        </mxCell>
        <mxCell id="qjkU8IZS4I7HpVYI03z5-75" value="STUDENT_DEMAND_TO_COURSE" style="shape=rhombus;perimeter=rhombusPerimeter;whiteSpace=wrap;html=1;align=center;" parent="1" vertex="1">
          <mxGeometry x="-2965" y="-5337" width="220" height="194" as="geometry" />
        </mxCell>
        <mxCell id="qjkU8IZS4I7HpVYI03z5-76" value="" style="endArrow=none;html=1;rounded=0;exitX=1;exitY=0.5;exitDx=0;exitDy=0;entryX=0;entryY=0.5;entryDx=0;entryDy=0;" parent="1" source="DwUaBpvBbQlG7ZUZZvnP-54" target="qjkU8IZS4I7HpVYI03z5-75" edge="1">
          <mxGeometry relative="1" as="geometry">
            <mxPoint x="-2930" y="-5130" as="sourcePoint" />
            <mxPoint x="-2770" y="-5130" as="targetPoint" />
            <Array as="points">
              <mxPoint x="-3000" y="-5141" />
              <mxPoint x="-3000" y="-5240" />
            </Array>
          </mxGeometry>
        </mxCell>
        <mxCell id="qjkU8IZS4I7HpVYI03z5-77" value="N" style="resizable=0;html=1;whiteSpace=wrap;align=right;verticalAlign=bottom;" parent="qjkU8IZS4I7HpVYI03z5-76" connectable="0" vertex="1">
          <mxGeometry x="1" relative="1" as="geometry" />
        </mxCell>
        <mxCell id="qjkU8IZS4I7HpVYI03z5-81" value="" style="endArrow=none;html=1;rounded=0;exitX=1;exitY=0.5;exitDx=0;exitDy=0;entryX=0.565;entryY=1;entryDx=0;entryDy=0;entryPerimeter=0;" parent="1" source="qjkU8IZS4I7HpVYI03z5-75" target="DwUaBpvBbQlG7ZUZZvnP-110" edge="1">
          <mxGeometry relative="1" as="geometry">
            <mxPoint x="-2745" y="-5141" as="sourcePoint" />
            <mxPoint x="-2440" y="-5682" as="targetPoint" />
            <Array as="points">
              <mxPoint x="-2600" y="-5240" />
              <mxPoint x="-2600" y="-5440" />
              <mxPoint x="-2440" y="-5440" />
            </Array>
          </mxGeometry>
        </mxCell>
        <mxCell id="qjkU8IZS4I7HpVYI03z5-82" value="M" style="resizable=0;html=1;whiteSpace=wrap;align=left;verticalAlign=bottom;" parent="qjkU8IZS4I7HpVYI03z5-81" connectable="0" vertex="1">
          <mxGeometry x="-1" relative="1" as="geometry" />
        </mxCell>
        <mxCell id="qjkU8IZS4I7HpVYI03z5-83" value="N" style="resizable=0;html=1;whiteSpace=wrap;align=right;verticalAlign=bottom;" parent="qjkU8IZS4I7HpVYI03z5-81" connectable="0" vertex="1">
          <mxGeometry x="1" relative="1" as="geometry" />
        </mxCell>
        <mxCell id="OrhfaMdSh9-TUmg6NhMU-1" value="BIRTH_DATE" style="ellipse;whiteSpace=wrap;html=1;" vertex="1" parent="1">
          <mxGeometry x="-3130" y="-5121" width="110" height="39" as="geometry" />
        </mxCell>
        <mxCell id="OrhfaMdSh9-TUmg6NhMU-2" value="" style="endArrow=none;html=1;rounded=0;exitX=0.95;exitY=1.003;exitDx=0;exitDy=0;exitPerimeter=0;entryX=0;entryY=0.5;entryDx=0;entryDy=0;" edge="1" parent="1" source="DwUaBpvBbQlG7ZUZZvnP-54" target="OrhfaMdSh9-TUmg6NhMU-1">
          <mxGeometry width="50" height="50" relative="1" as="geometry">
            <mxPoint x="-3160" y="-5151" as="sourcePoint" />
            <mxPoint x="-3117" y="-5171" as="targetPoint" />
          </mxGeometry>
        </mxCell>
        <mxCell id="OrhfaMdSh9-TUmg6NhMU-3" value="TIMETABLE" style="rounded=0;whiteSpace=wrap;html=1;" vertex="1" parent="1">
          <mxGeometry x="-2680" y="-5070" width="160" height="40" as="geometry" />
        </mxCell>
        <mxCell id="OrhfaMdSh9-TUmg6NhMU-5" value="TIMETABLE_DAY" style="ellipse;whiteSpace=wrap;html=1;" vertex="1" parent="1">
          <mxGeometry x="-2655" y="-5010" width="110" height="39" as="geometry" />
        </mxCell>
        <mxCell id="OrhfaMdSh9-TUmg6NhMU-6" value="TIMETABLE_HOUR" style="ellipse;whiteSpace=wrap;html=1;" vertex="1" parent="1">
          <mxGeometry x="-2520" y="-5010" width="120" height="39" as="geometry" />
        </mxCell>
        <mxCell id="OrhfaMdSh9-TUmg6NhMU-9" value="" style="endArrow=none;html=1;rounded=0;exitX=0.027;exitY=0.998;exitDx=0;exitDy=0;entryX=1;entryY=0;entryDx=0;entryDy=0;exitPerimeter=0;" edge="1" parent="1" source="OrhfaMdSh9-TUmg6NhMU-3" target="OrhfaMdSh9-TUmg6NhMU-12">
          <mxGeometry width="50" height="50" relative="1" as="geometry">
            <mxPoint x="-2708" y="-5030" as="sourcePoint" />
            <mxPoint x="-2735" y="-5010" as="targetPoint" />
          </mxGeometry>
        </mxCell>
        <mxCell id="OrhfaMdSh9-TUmg6NhMU-10" value="" style="endArrow=none;html=1;rounded=0;exitX=0.5;exitY=1;exitDx=0;exitDy=0;entryX=0.5;entryY=0;entryDx=0;entryDy=0;" edge="1" parent="1" source="OrhfaMdSh9-TUmg6NhMU-3" target="OrhfaMdSh9-TUmg6NhMU-5">
          <mxGeometry width="50" height="50" relative="1" as="geometry">
            <mxPoint x="-2206" y="-5040" as="sourcePoint" />
            <mxPoint x="-2268" y="-5040" as="targetPoint" />
          </mxGeometry>
        </mxCell>
        <mxCell id="OrhfaMdSh9-TUmg6NhMU-11" value="" style="endArrow=none;html=1;rounded=0;exitX=0.975;exitY=1.001;exitDx=0;exitDy=0;entryX=0.5;entryY=0;entryDx=0;entryDy=0;exitPerimeter=0;" edge="1" parent="1" source="OrhfaMdSh9-TUmg6NhMU-3" target="OrhfaMdSh9-TUmg6NhMU-6">
          <mxGeometry width="50" height="50" relative="1" as="geometry">
            <mxPoint x="-2196" y="-5030" as="sourcePoint" />
            <mxPoint x="-2258" y="-5030" as="targetPoint" />
          </mxGeometry>
        </mxCell>
        <mxCell id="OrhfaMdSh9-TUmg6NhMU-12" value="TIME_ID" style="ellipse;whiteSpace=wrap;html=1;align=center;fontStyle=4;" vertex="1" parent="1">
          <mxGeometry x="-2810" y="-5011" width="100" height="40" as="geometry" />
        </mxCell>
        <mxCell id="OrhfaMdSh9-TUmg6NhMU-14" value="INSTRUCTOR_TO_AVAILABLE_HOURS" style="shape=rhombus;perimeter=rhombusPerimeter;whiteSpace=wrap;html=1;align=center;" vertex="1" parent="1">
          <mxGeometry x="-3270" y="-4850" width="250" height="260" as="geometry" />
        </mxCell>
        <mxCell id="OrhfaMdSh9-TUmg6NhMU-18" value="" style="endArrow=none;html=1;rounded=0;entryX=0;entryY=0.5;entryDx=0;entryDy=0;exitX=0.18;exitY=1.004;exitDx=0;exitDy=0;exitPerimeter=0;" edge="1" parent="1" source="DwUaBpvBbQlG7ZUZZvnP-22" target="OrhfaMdSh9-TUmg6NhMU-14">
          <mxGeometry relative="1" as="geometry">
            <mxPoint x="-3010" y="-4850" as="sourcePoint" />
            <mxPoint x="-2850" y="-4850" as="targetPoint" />
            <Array as="points">
              <mxPoint x="-3281" y="-5480" />
              <mxPoint x="-3480" y="-5480" />
              <mxPoint x="-3480" y="-4720" />
              <mxPoint x="-3350" y="-4720" />
            </Array>
          </mxGeometry>
        </mxCell>
        <mxCell id="OrhfaMdSh9-TUmg6NhMU-19" value="N" style="resizable=0;html=1;whiteSpace=wrap;align=right;verticalAlign=bottom;" connectable="0" vertex="1" parent="OrhfaMdSh9-TUmg6NhMU-18">
          <mxGeometry x="1" relative="1" as="geometry" />
        </mxCell>
        <mxCell id="OrhfaMdSh9-TUmg6NhMU-21" value="" style="endArrow=none;html=1;rounded=0;exitX=1;exitY=0.5;exitDx=0;exitDy=0;entryX=0.125;entryY=1.001;entryDx=0;entryDy=0;entryPerimeter=0;" edge="1" parent="1" source="OrhfaMdSh9-TUmg6NhMU-14" target="OrhfaMdSh9-TUmg6NhMU-3">
          <mxGeometry relative="1" as="geometry">
            <mxPoint x="-3580" y="-5050" as="sourcePoint" />
            <mxPoint x="-3420" y="-5050" as="targetPoint" />
            <Array as="points">
              <mxPoint x="-2660" y="-4720" />
            </Array>
          </mxGeometry>
        </mxCell>
        <mxCell id="OrhfaMdSh9-TUmg6NhMU-22" value="M" style="resizable=0;html=1;whiteSpace=wrap;align=left;verticalAlign=bottom;" connectable="0" vertex="1" parent="OrhfaMdSh9-TUmg6NhMU-21">
          <mxGeometry x="-1" relative="1" as="geometry" />
        </mxCell>
        <mxCell id="OrhfaMdSh9-TUmg6NhMU-23" value="N" style="resizable=0;html=1;whiteSpace=wrap;align=right;verticalAlign=bottom;" connectable="0" vertex="1" parent="OrhfaMdSh9-TUmg6NhMU-21">
          <mxGeometry x="1" relative="1" as="geometry" />
        </mxCell>
        <mxCell id="OrhfaMdSh9-TUmg6NhMU-25" value="ACTIVE_STUDENT_TO_AVAILABLE_HOURS" style="shape=rhombus;perimeter=rhombusPerimeter;whiteSpace=wrap;html=1;align=center;" vertex="1" parent="1">
          <mxGeometry x="-3060" y="-5030" width="280" height="279" as="geometry" />
        </mxCell>
        <mxCell id="OrhfaMdSh9-TUmg6NhMU-28" value="" style="endArrow=none;html=1;rounded=0;exitX=0.47;exitY=0.998;exitDx=0;exitDy=0;exitPerimeter=0;entryX=0;entryY=0.5;entryDx=0;entryDy=0;" edge="1" parent="1" source="DwUaBpvBbQlG7ZUZZvnP-64" target="OrhfaMdSh9-TUmg6NhMU-25">
          <mxGeometry relative="1" as="geometry">
            <mxPoint x="-3360" y="-5000" as="sourcePoint" />
            <mxPoint x="-3270" y="-4880" as="targetPoint" />
            <Array as="points">
              <mxPoint x="-3360" y="-4890" />
            </Array>
          </mxGeometry>
        </mxCell>
        <mxCell id="OrhfaMdSh9-TUmg6NhMU-29" value="N" style="resizable=0;html=1;whiteSpace=wrap;align=right;verticalAlign=bottom;" connectable="0" vertex="1" parent="OrhfaMdSh9-TUmg6NhMU-28">
          <mxGeometry x="1" relative="1" as="geometry" />
        </mxCell>
        <mxCell id="OrhfaMdSh9-TUmg6NhMU-30" value="" style="endArrow=none;html=1;rounded=0;exitX=1;exitY=0.5;exitDx=0;exitDy=0;entryX=0.062;entryY=1.005;entryDx=0;entryDy=0;entryPerimeter=0;" edge="1" parent="1" source="OrhfaMdSh9-TUmg6NhMU-25" target="OrhfaMdSh9-TUmg6NhMU-3">
          <mxGeometry relative="1" as="geometry">
            <mxPoint x="-2890" y="-5060" as="sourcePoint" />
            <mxPoint x="-2670" y="-5010" as="targetPoint" />
            <Array as="points">
              <mxPoint x="-2670" y="-4890" />
            </Array>
          </mxGeometry>
        </mxCell>
        <mxCell id="OrhfaMdSh9-TUmg6NhMU-31" value="M" style="resizable=0;html=1;whiteSpace=wrap;align=left;verticalAlign=bottom;" connectable="0" vertex="1" parent="OrhfaMdSh9-TUmg6NhMU-30">
          <mxGeometry x="-1" relative="1" as="geometry" />
        </mxCell>
        <mxCell id="OrhfaMdSh9-TUmg6NhMU-32" value="N" style="resizable=0;html=1;whiteSpace=wrap;align=right;verticalAlign=bottom;" connectable="0" vertex="1" parent="OrhfaMdSh9-TUmg6NhMU-30">
          <mxGeometry x="1" relative="1" as="geometry" />
        </mxCell>
        <mxCell id="OrhfaMdSh9-TUmg6NhMU-33" value="COURSE_TIME" style="shape=rhombus;perimeter=rhombusPerimeter;whiteSpace=wrap;html=1;align=center;" vertex="1" parent="1">
          <mxGeometry x="-2600" y="-5251" width="118" height="101" as="geometry" />
        </mxCell>
        <mxCell id="OrhfaMdSh9-TUmg6NhMU-34" value="" style="endArrow=none;html=1;rounded=0;exitX=0.5;exitY=1;exitDx=0;exitDy=0;entryX=0.864;entryY=0;entryDx=0;entryDy=0;entryPerimeter=0;" edge="1" parent="1" source="OrhfaMdSh9-TUmg6NhMU-33" target="OrhfaMdSh9-TUmg6NhMU-3">
          <mxGeometry relative="1" as="geometry">
            <mxPoint x="-2770" y="-4880" as="sourcePoint" />
            <mxPoint x="-2660" y="-5020" as="targetPoint" />
            <Array as="points" />
          </mxGeometry>
        </mxCell>
        <mxCell id="OrhfaMdSh9-TUmg6NhMU-35" value="M" style="resizable=0;html=1;whiteSpace=wrap;align=left;verticalAlign=bottom;" connectable="0" vertex="1" parent="OrhfaMdSh9-TUmg6NhMU-34">
          <mxGeometry x="-1" relative="1" as="geometry" />
        </mxCell>
        <mxCell id="OrhfaMdSh9-TUmg6NhMU-36" value="N" style="resizable=0;html=1;whiteSpace=wrap;align=right;verticalAlign=bottom;" connectable="0" vertex="1" parent="OrhfaMdSh9-TUmg6NhMU-34">
          <mxGeometry x="1" relative="1" as="geometry" />
        </mxCell>
        <mxCell id="OrhfaMdSh9-TUmg6NhMU-37" value="" style="endArrow=none;html=1;rounded=0;entryX=0.5;entryY=0;entryDx=0;entryDy=0;exitX=0.813;exitY=1.002;exitDx=0;exitDy=0;exitPerimeter=0;" edge="1" parent="1" source="DwUaBpvBbQlG7ZUZZvnP-110" target="OrhfaMdSh9-TUmg6NhMU-33">
          <mxGeometry relative="1" as="geometry">
            <mxPoint x="-2250" y="-5190" as="sourcePoint" />
            <mxPoint x="-2090" y="-5190" as="targetPoint" />
            <Array as="points">
              <mxPoint x="-2400" y="-5400" />
              <mxPoint x="-2540" y="-5400" />
            </Array>
          </mxGeometry>
        </mxCell>
        <mxCell id="OrhfaMdSh9-TUmg6NhMU-38" value="N" style="resizable=0;html=1;whiteSpace=wrap;align=right;verticalAlign=bottom;" connectable="0" vertex="1" parent="OrhfaMdSh9-TUmg6NhMU-37">
          <mxGeometry x="1" relative="1" as="geometry" />
        </mxCell>
      </root>
    </mxGraphModel>
  </diagram>
</mxfile>
